<svg width="111" height="111" viewBox="0 0 111 111" fill="none" xmlns="http://www.w3.org/2000/svg">
<mask id="mask0_94_3974" style="mask-type:alpha" maskUnits="userSpaceOnUse" x="0" y="0" width="111" height="111">
<rect width="111" height="111" fill="#D9D9D9"/>
</mask>
<g mask="url(#mask0_94_3974)">
<path d="M50.3834 84.7147L34.2729 68.6813L39.7458 63.2084L50.3834 73.6918L71.0417 53.0334L76.5146 58.5834L50.3834 84.7147ZM21.7083 101.75C19.627 101.75 17.822 100.986 16.2932 99.4569C14.7644 97.9281 14 96.1231 14 94.0418V24.6667C14 22.5854 14.7644 20.7804 16.2932 19.2516C17.822 17.7228 19.627 16.9583 21.7083 16.9583H28.2604V9.25006H36.3541V16.9583H74.8959V9.25006H82.9896V16.9583H89.5417C91.623 16.9583 93.428 17.7228 94.9568 19.2516C96.4856 20.7804 97.25 22.5854 97.25 24.6667V94.0418C97.25 96.1231 96.4856 97.9281 94.9568 99.4569C93.428 100.986 91.623 101.75 89.5417 101.75H21.7083ZM21.7083 94.0418H89.5417V45.4792H21.7083V94.0418ZM21.7083 37.7709H89.5417V24.6667H21.7083V37.7709Z" fill="white"/>
</g>
</svg>
