<svg width="131" height="131" viewBox="0 0 131 131" fill="none" xmlns="http://www.w3.org/2000/svg">
<g id="weather" clip-path="url(#clip0_31_10)">
<path id="Vector" d="M42.0292 76.4167C54.9918 76.4167 65.5 65.9084 65.5 52.9458C65.5 39.9833 54.9918 29.475 42.0292 29.475C29.0666 29.475 18.5583 39.9833 18.5583 52.9458C18.5583 65.9084 29.0666 76.4167 42.0292 76.4167Z" fill="url(#paint0_linear_31_10)"/>
<path id="Vector_2" opacity="0.88" fill-rule="evenodd" clip-rule="evenodd" d="M46.9416 98.25C42.6412 98.1148 38.5308 96.4465 35.3526 93.5463C32.1745 90.6461 30.1379 86.7052 29.6108 82.4351C29.0836 78.1649 30.1005 73.847 32.4779 70.261C34.8553 66.6749 38.4365 64.057 42.5749 62.88C42.678 57.4808 44.6837 52.2912 48.2386 48.226C51.7934 44.1609 56.6691 41.4811 62.0064 40.6589C67.3437 39.8368 72.7999 40.9252 77.4132 43.7321C82.0266 46.5391 85.501 50.8846 87.2241 56.0025C88.5228 55.7851 89.8373 55.6756 91.1541 55.675C96.7999 55.675 102.214 57.9178 106.207 61.91C110.199 65.9022 112.442 71.3167 112.442 76.9625C112.442 82.6083 110.199 88.0229 106.207 92.015C102.214 96.0072 96.7999 98.25 91.1541 98.25H46.9416Z" fill="white"/>
</g>
<defs>
<linearGradient id="paint0_linear_31_10" x1="42.0406" y1="29.4657" x2="42.0406" y2="76.4074" gradientUnits="userSpaceOnUse">
<stop stop-color="#FFC700"/>
<stop offset="1" stop-color="#FFEA00"/>
</linearGradient>
<clipPath id="clip0_31_10">
<rect width="131" height="131" fill="white"/>
</clipPath>
</defs>
</svg>
